<mxfile host="app.diagrams.net" agent="Mozilla/5.0 (X11; Linux x86_64) AppleWebKit/537.36 (KHTML, like Gecko) Chrome/136.0.0.0 Safari/537.36" version="27.1.4">
  <diagram name="Page-1" id="lau2Q4xQzG6uTudvdMQG">
    <mxGraphModel dx="1426" dy="913" grid="1" gridSize="10" guides="1" tooltips="1" connect="1" arrows="1" fold="1" page="1" pageScale="1" pageWidth="827" pageHeight="1169" math="0" shadow="0">
      <root>
        <mxCell id="0" />
        <mxCell id="1" parent="0" />
        <mxCell id="ZgNNQgriN2fsgLKSUaRx-16" value="TPU.sv" style="rounded=0;whiteSpace=wrap;html=1;verticalAlign=top;fontSize=40;fillColor=none;" parent="1" vertex="1">
          <mxGeometry x="83" y="197" width="660" height="775" as="geometry" />
        </mxCell>
        <mxCell id="ZgNNQgriN2fsgLKSUaRx-1" value="&lt;font style=&quot;font-size: 19px;&quot;&gt;Matrix Multiply Unit (MMU)&lt;/font&gt;" style="rounded=0;whiteSpace=wrap;html=1;fillColor=none;" parent="1" vertex="1">
          <mxGeometry x="399" y="402" width="190" height="190" as="geometry" />
        </mxCell>
        <mxCell id="ZgNNQgriN2fsgLKSUaRx-2" value="&lt;font style=&quot;font-size: 19px;&quot;&gt;Register File&lt;/font&gt;" style="rounded=0;whiteSpace=wrap;html=1;fillColor=none;" parent="1" vertex="1">
          <mxGeometry x="399" y="622" width="190" height="60" as="geometry" />
        </mxCell>
        <mxCell id="ZgNNQgriN2fsgLKSUaRx-3" value="&lt;font style=&quot;font-size: 19px;&quot;&gt;Activation Unit&lt;/font&gt;" style="rounded=0;whiteSpace=wrap;html=1;fillColor=none;" parent="1" vertex="1">
          <mxGeometry x="399" y="712" width="190" height="60" as="geometry" />
        </mxCell>
        <mxCell id="ZgNNQgriN2fsgLKSUaRx-5" value="&lt;font style=&quot;font-size: 19px;&quot;&gt;Weight Buffer&lt;/font&gt;" style="rounded=0;whiteSpace=wrap;html=1;fillColor=none;" parent="1" vertex="1">
          <mxGeometry x="504" y="312" width="190" height="60" as="geometry" />
        </mxCell>
        <mxCell id="ZgNNQgriN2fsgLKSUaRx-6" value="&lt;font style=&quot;font-size: 19px;&quot;&gt;Systolic Data Setup Unit&lt;/font&gt;" style="rounded=0;whiteSpace=wrap;html=1;fillColor=none;" parent="1" vertex="1">
          <mxGeometry x="284" y="312" width="190" height="60" as="geometry" />
        </mxCell>
        <mxCell id="ZgNNQgriN2fsgLKSUaRx-7" value="&lt;font style=&quot;font-size: 19px;&quot;&gt;Unified Buffer&lt;/font&gt;" style="rounded=0;whiteSpace=wrap;html=1;fillColor=none;" parent="1" vertex="1">
          <mxGeometry x="134" y="432" width="206" height="340" as="geometry" />
        </mxCell>
        <mxCell id="ZgNNQgriN2fsgLKSUaRx-8" value="&lt;font style=&quot;font-size: 19px;&quot;&gt;Control Logic&lt;/font&gt;" style="rounded=0;whiteSpace=wrap;html=1;fillColor=none;" parent="1" vertex="1">
          <mxGeometry x="300" y="822" width="414" height="90" as="geometry" />
        </mxCell>
        <mxCell id="ZgNNQgriN2fsgLKSUaRx-9" value="&lt;font style=&quot;font-size: 19px;&quot;&gt;Look Ahead Buffer&lt;/font&gt;" style="rounded=0;whiteSpace=wrap;html=1;fillColor=none;" parent="1" vertex="1">
          <mxGeometry x="134" y="822" width="130" height="90" as="geometry" />
        </mxCell>
        <mxCell id="ZgNNQgriN2fsgLKSUaRx-10" value="" style="endArrow=classic;html=1;rounded=0;entryX=0;entryY=0.5;entryDx=0;entryDy=0;exitX=0.5;exitY=0;exitDx=0;exitDy=0;" parent="1" source="ZgNNQgriN2fsgLKSUaRx-7" target="ZgNNQgriN2fsgLKSUaRx-6" edge="1">
          <mxGeometry width="50" height="50" relative="1" as="geometry">
            <mxPoint x="224" y="432" as="sourcePoint" />
            <mxPoint x="274" y="382" as="targetPoint" />
            <Array as="points">
              <mxPoint x="237" y="342" />
            </Array>
          </mxGeometry>
        </mxCell>
        <mxCell id="ZgNNQgriN2fsgLKSUaRx-11" value="" style="endArrow=classic;html=1;rounded=0;entryX=0.132;entryY=0;entryDx=0;entryDy=0;entryPerimeter=0;" parent="1" edge="1">
          <mxGeometry width="50" height="50" relative="1" as="geometry">
            <mxPoint x="434" y="372" as="sourcePoint" />
            <mxPoint x="434.0799999999999" y="402" as="targetPoint" />
          </mxGeometry>
        </mxCell>
        <mxCell id="ZgNNQgriN2fsgLKSUaRx-12" value="" style="endArrow=classic;html=1;rounded=0;entryX=0.132;entryY=0;entryDx=0;entryDy=0;entryPerimeter=0;" parent="1" edge="1">
          <mxGeometry width="50" height="50" relative="1" as="geometry">
            <mxPoint x="554" y="372" as="sourcePoint" />
            <mxPoint x="554.0799999999999" y="402" as="targetPoint" />
          </mxGeometry>
        </mxCell>
        <mxCell id="ZgNNQgriN2fsgLKSUaRx-13" value="" style="endArrow=classic;html=1;rounded=0;entryX=0.132;entryY=0;entryDx=0;entryDy=0;entryPerimeter=0;" parent="1" edge="1">
          <mxGeometry width="50" height="50" relative="1" as="geometry">
            <mxPoint x="493.79999999999995" y="592" as="sourcePoint" />
            <mxPoint x="493.8799999999999" y="622" as="targetPoint" />
          </mxGeometry>
        </mxCell>
        <mxCell id="ZgNNQgriN2fsgLKSUaRx-14" value="" style="endArrow=classic;html=1;rounded=0;entryX=0.132;entryY=0;entryDx=0;entryDy=0;entryPerimeter=0;" parent="1" edge="1">
          <mxGeometry width="50" height="50" relative="1" as="geometry">
            <mxPoint x="493.79999999999995" y="682" as="sourcePoint" />
            <mxPoint x="493.8799999999999" y="712" as="targetPoint" />
          </mxGeometry>
        </mxCell>
        <mxCell id="ZgNNQgriN2fsgLKSUaRx-15" value="" style="endArrow=classic;html=1;rounded=0;entryX=1;entryY=0.912;entryDx=0;entryDy=0;entryPerimeter=0;" parent="1" target="ZgNNQgriN2fsgLKSUaRx-7" edge="1">
          <mxGeometry width="50" height="50" relative="1" as="geometry">
            <mxPoint x="399" y="742" as="sourcePoint" />
            <mxPoint x="449" y="692" as="targetPoint" />
          </mxGeometry>
        </mxCell>
        <mxCell id="ZgNNQgriN2fsgLKSUaRx-17" value="" style="endArrow=classic;html=1;rounded=0;" parent="1" edge="1">
          <mxGeometry width="50" height="50" relative="1" as="geometry">
            <mxPoint x="198.8" y="1020" as="sourcePoint" />
            <mxPoint x="198.8" y="912" as="targetPoint" />
          </mxGeometry>
        </mxCell>
        <mxCell id="ZgNNQgriN2fsgLKSUaRx-18" value="" style="endArrow=classic;html=1;rounded=0;" parent="1" edge="1">
          <mxGeometry width="50" height="50" relative="1" as="geometry">
            <mxPoint x="40.83" y="601.8" as="sourcePoint" />
            <mxPoint x="134.00000000000003" y="601.8" as="targetPoint" />
          </mxGeometry>
        </mxCell>
        <mxCell id="ZgNNQgriN2fsgLKSUaRx-19" value="" style="endArrow=classic;html=1;rounded=0;" parent="1" edge="1">
          <mxGeometry width="50" height="50" relative="1" as="geometry">
            <mxPoint x="800" y="342" as="sourcePoint" />
            <mxPoint x="694" y="341.49999999999994" as="targetPoint" />
          </mxGeometry>
        </mxCell>
        <mxCell id="ZgNNQgriN2fsgLKSUaRx-20" value="" style="endArrow=classic;html=1;rounded=0;" parent="1" edge="1">
          <mxGeometry width="50" height="50" relative="1" as="geometry">
            <mxPoint x="504" y="912" as="sourcePoint" />
            <mxPoint x="504.25" y="1020" as="targetPoint" />
          </mxGeometry>
        </mxCell>
        <mxCell id="ZgNNQgriN2fsgLKSUaRx-21" value="" style="endArrow=classic;html=1;rounded=0;strokeWidth=1;endSize=6;sourcePerimeterSpacing=0;startSize=6;" parent="1" edge="1">
          <mxGeometry width="50" height="50" relative="1" as="geometry">
            <mxPoint x="300" y="860" as="sourcePoint" />
            <mxPoint x="264" y="860" as="targetPoint" />
          </mxGeometry>
        </mxCell>
        <mxCell id="ZgNNQgriN2fsgLKSUaRx-22" value="" style="endArrow=classic;html=1;rounded=0;strokeWidth=1;endSize=6;sourcePerimeterSpacing=0;startSize=6;" parent="1" edge="1">
          <mxGeometry width="50" height="50" relative="1" as="geometry">
            <mxPoint x="263.9999999999999" y="879.9956420233462" as="sourcePoint" />
            <mxPoint x="299.9999999999999" y="879.9956420233462" as="targetPoint" />
          </mxGeometry>
        </mxCell>
        <mxCell id="ZgNNQgriN2fsgLKSUaRx-23" value="" style="endArrow=classic;html=1;rounded=0;entryX=0.926;entryY=1.001;entryDx=0;entryDy=0;entryPerimeter=0;dashed=1;dashPattern=1 4;" parent="1" target="ZgNNQgriN2fsgLKSUaRx-5" edge="1">
          <mxGeometry width="50" height="50" relative="1" as="geometry">
            <mxPoint x="680" y="822" as="sourcePoint" />
            <mxPoint x="730" y="772" as="targetPoint" />
          </mxGeometry>
        </mxCell>
        <mxCell id="ZgNNQgriN2fsgLKSUaRx-24" value="" style="endArrow=classic;html=1;rounded=0;dashed=1;dashPattern=1 4;" parent="1" edge="1">
          <mxGeometry width="50" height="50" relative="1" as="geometry">
            <mxPoint x="680" y="500" as="sourcePoint" />
            <mxPoint x="589" y="500" as="targetPoint" />
          </mxGeometry>
        </mxCell>
        <mxCell id="ZgNNQgriN2fsgLKSUaRx-25" value="" style="endArrow=classic;html=1;rounded=0;dashed=1;dashPattern=1 4;" parent="1" edge="1">
          <mxGeometry width="50" height="50" relative="1" as="geometry">
            <mxPoint x="680" y="651.8" as="sourcePoint" />
            <mxPoint x="589" y="651.8" as="targetPoint" />
          </mxGeometry>
        </mxCell>
        <mxCell id="ZgNNQgriN2fsgLKSUaRx-26" value="" style="endArrow=classic;html=1;rounded=0;dashed=1;dashPattern=1 4;" parent="1" edge="1">
          <mxGeometry width="50" height="50" relative="1" as="geometry">
            <mxPoint x="680" y="741.8" as="sourcePoint" />
            <mxPoint x="589" y="741.8" as="targetPoint" />
          </mxGeometry>
        </mxCell>
        <mxCell id="ZgNNQgriN2fsgLKSUaRx-28" value="" style="endArrow=classic;html=1;rounded=0;dashed=1;dashPattern=1 4;" parent="1" edge="1">
          <mxGeometry width="50" height="50" relative="1" as="geometry">
            <mxPoint x="320" y="822" as="sourcePoint" />
            <mxPoint x="320" y="772" as="targetPoint" />
          </mxGeometry>
        </mxCell>
      </root>
    </mxGraphModel>
  </diagram>
</mxfile>
